<?xml version="1.0" standalone="no"?>
<!DOCTYPE svg PUBLIC "-//W3C//DTD SVG 1.1//EN" "http://www.w3.org/Graphics/SVG/1.1/DTD/svg11.dtd" >
<svg xmlns="http://www.w3.org/2000/svg">
<metadata></metadata>
<defs>
<font id="pilsen_plakatregular" horiz-adv-x="1001" >
<font-face units-per-em="2048" ascent="1638" descent="-410" />
<missing-glyph horiz-adv-x="985" />
<glyph horiz-adv-x="682" />
<glyph horiz-adv-x="653" d="M80 1769q6 -127 129 -204q51 -33 123 -33q55 0 104 22q143 70 144 226q0 115 -82 188q-76 66 -172 66q-70 0 -140 -45q-113 -86 -106 -220zM211 1765q-16 82 61 129q29 16 58 17q47 0 86 -38t43 -85q2 -70 -58 -115q-53 -41 -110 -12q-66 30 -80 104z" />
<glyph unicode="&#xd;" horiz-adv-x="532" d="M104 0h375v1442h-375v-1442z" />
<glyph horiz-adv-x="1073" d="M78 1833l649 -1833h270l-649 1833h-270z" />
<glyph horiz-adv-x="1107" d="M39 1163h67v-1163h383v1163h187v-1163h375v1442h-553q2 88 14 102q16 16 104 23v266q-76 0 -123 -1t-67 -3q-104 -6 -164 -39q-102 -53 -133 -156q-16 -61 -16 -192h-74v-279zM676 1749q0 -39 15.5 -74t42 -60.5t61 -40.5t73.5 -15q47 0 88 24q94 55 97 154 q4 102 -80 164q-47 35 -107 34q-26 0 -61 -10q-129 -43 -129 -176z" />
<glyph horiz-adv-x="1107" d="M39 1163h67v-1163h383v1163h86v279h-77q2 88 14 102q16 16 104 23v2h62v-1569h375v1833h-363v2h-100t-88 -2q-164 -4 -240 -43q-98 -53 -129 -148q-20 -59 -20 -200h-74v-279z" />
<glyph horiz-adv-x="888" d="M0 850l109 -262l67 26v-614h717v285h-311v501l202 86l-110 263l-92 -39v733h-406v-905z" />
<glyph horiz-adv-x="788" d="M0 850l111 -262l96 39v-627h375v786l204 86l-110 263l-94 -39v737h-375v-897z" />
<glyph horiz-adv-x="854" d="M35 2470l244 -391h374l240 387h-266l-158 -158l-162 162h-272zM98 0h703v381h-228l228 1452h-692v-375h210z" />
<glyph horiz-adv-x="759" d="M-2 2056l244 -391h374l240 389h-266l-160 -160l-160 162h-272zM78 0h627v240h-197l207 1202h-621v-256h185z" />
<glyph unicode=" "  horiz-adv-x="985" />
<glyph unicode="&#x09;" horiz-adv-x="985" />
<glyph unicode="&#xa0;" horiz-adv-x="985" />
<glyph unicode="!" horiz-adv-x="567" d="M80 215q-12 -113 86 -188q45 -33 110 -33q49 0 86 14q111 47 125 164q14 113 -79 190q-53 44 -123 44q-80 0 -138.5 -55.5t-66.5 -135.5zM98 1559q0 -35 6.5 -94.5t20.5 -145.5l125 -772h90l129 786q25 147 25 226q0 186 -93 251q-41 29 -104 29q-59 0 -96 -24 q-102 -68 -103 -256z" />
<glyph unicode="&#x22;" horiz-adv-x="780" d="M111 1671q0 -47 30 -209l64 -346h61l62 363q14 86 21 136t7 66q0 61 -22 97q-35 49 -96 51q-66 6 -97 -41q-31 -37 -30 -117zM438 1677q0 -47 31 -215l63 -346h62l61 363q14 86 21.5 136t7.5 66q0 61 -22 97q-33 45 -101 51q-63 4 -96 -41q-27 -35 -27 -111z" />
<glyph unicode="#" horiz-adv-x="1671" d="M90 557h295l-158 -444h238l160 444h252l-158 -444h239l158 444h295l72 201h-297l96 264h295l74 201h-297l157 444h-239l-158 -444h-252l158 444h-240l-157 -444h-293l-72 -201h293l-92 -264h-295zM698 758l93 264h253l-96 -264h-250z" />
<glyph unicode="$" horiz-adv-x="1171" d="M84 578q0 -82 1 -131.5t3 -69.5q8 -84 55 -166q106 -199 422 -225v-170h62v166q90 16 152.5 34.5t97.5 34.5q121 61 182 197q51 115 51 205q0 100 -70 209q-29 43 -80 105t-126 148l-207 228v413q33 8 88 -36q27 -27 39 -84q8 -35 8 -170h321q0 305 -73 413 q-88 123 -383 164v99h-62v-99q-68 0 -102 -8q-256 -55 -336 -299q-25 -78 -25 -147q0 -125 80 -250q66 -104 219 -254l164 -162v-451q-59 0 -104 43q-29 27 -45 86q-2 16 -3 60.5t-1 116.5h-328zM440 1427q0 66 47 109q45 33 78 23v-347q-125 143 -125 215zM627 270v381 q129 -135 129 -233q0 -10 -1 -20.5t-3 -20.5q-6 -18 -19.5 -39t-31 -37t-37 -25.5t-37.5 -5.5z" />
<glyph unicode="%" horiz-adv-x="1900" d="M98 1219q0 -147 13 -209q27 -127 118 -187q82 -51 220 -51q127 0 206 43q106 57 133 189q12 51 13 206v191q0 150 -6 190q-23 115 -97 176q-90 74 -272 74q-115 0 -197 -51q-92 -59 -118 -201q-12 -68 -13 -203v-167zM369 1309v159t2 72q6 61 35 88q14 10 40 10 q31 0 41 -10q31 -31 37 -92q2 -14 2 -70v-151v-148q0 -55 -2 -73q-6 -90 -37 -113q-35 -18 -81 2q-27 8 -33 92q-2 23 -3 81.5t-1 152.5zM449 0h202l858 1833h-209zM1141 424q0 -150 12 -205q27 -129 127 -188q82 -45 215 -45q129 0 207 41q111 63 135 178q6 33 6 209v188 q0 76 -1 121t-3 61q-18 111 -92 174q-90 78 -281 78q-18 0 -33.5 -1t-27.5 -3q-111 -18 -176 -80q-88 -86 -88 -383v-145zM1415 512v164q0 57 2 67q4 66 35 91q8 8 41 8q31 0 39 -8q35 -35 37 -95q2 -10 2 -65v-156v-153q0 -53 -2 -68q-6 -90 -37 -113q-29 -18 -80 2 q-27 8 -33 93q-2 23 -3 81t-1 152z" />
<glyph unicode="&#x26;" horiz-adv-x="1378" d="M76 487q0 -346 252 -464q80 -39 178 -39q139 0 309 96l37 -80h436l-164 367q106 154 154 288q33 100 61 287h-335q-4 -35 -15.5 -84t-30.5 -115l-102 222q104 88 141 131q152 176 152 352q0 66 -25 131q-84 217 -344 256q-16 2 -32.5 3t-32.5 1q-246 0 -371 -166 q-70 -90 -70 -223q0 -164 113 -403q-172 -186 -235 -295q-76 -125 -76 -265zM483 496q0 80 56 178l135 -307q-39 -39 -88 -39q-23 6 -41.5 23.5t-32.5 41t-21.5 51t-7.5 52.5zM649 1475q0 39 15 55q29 35 65 26q27 -6 44.5 -38.5t17.5 -63.5q-1 -56 -97 -158 q-45 117 -45 179z" />
<glyph unicode="'" horiz-adv-x="569" d="M90 1626q8 -63 51 -100q20 -16 101 -62q8 -35 -56 -73q-23 -16 -41 -26.5t-32 -18.5l49 -76q195 47 278 145q63 72 64 197q0 98 -59.5 162.5t-157.5 64.5q-78 0 -127 -43q-82 -70 -70 -170z" />
<glyph unicode="(" horiz-adv-x="897" d="M106 766q0 -532 545 -987h201l-27 47q-322 567 -321 1010q0 457 340 989h-197q-467 -430 -528 -883q-12 -90 -13 -176z" />
<glyph unicode=")" horiz-adv-x="894" d="M80 1827l24 -47q313 -602 314 -1030q0 -438 -328 -969h195q270 246 411 536q135 274 127 521q-18 555 -547 989h-196z" />
<glyph unicode="*" horiz-adv-x="1095" d="M90 1425q47 -84 291 -84h55q14 2 21 2q8 0 6 0h43q-82 -55 -123 -83l-41 -27q-121 -90 -131 -150q-2 -8 -2 -24q0 -29 11 -53.5t32.5 -42t49.5 -24.5t63 3q68 23 112 148l55 172l19 47q82 -317 154 -357q57 -37 110 -8q61 35 64 113q4 66 -111 162q-2 2 -43 33.5 t-123 90.5q246 -18 330 7q92 29 90 114q0 47 -30.5 85t-76.5 38q-87 0 -329 -184v39l55 141q35 98 35 150q0 47 -31 79.5t-80 36.5q-125 8 -125 -125q0 -76 78 -319q-119 102 -156 127q-96 68 -161 67q-61 0 -103 -59q-35 -70 -8 -115z" />
<glyph unicode="+" horiz-adv-x="1613" d="M131 492h496v-492h352v492h496v346h-496v495h-352v-495h-496v-346z" />
<glyph unicode="," horiz-adv-x="569" d="M106 190q6 -63 54 -104q20 -16 100 -55v-21q-35 -41 -61 -57q-23 -14 -40.5 -24.5l-27.5 -16.5l49 -76q197 49 279 150q61 74 61 192q0 98 -59.5 160.5t-159.5 62.5q-80 0 -125 -39q-80 -68 -70 -172z" />
<glyph unicode="-" horiz-adv-x="890" d="M96 684h733v354h-733v-354z" />
<glyph unicode="." horiz-adv-x="557" d="M113 193q2 -111 98 -170q45 -25 102 -25q45 0 82 14q123 55 123 189q0 86 -74 151q-53 47 -133 47q-43 0 -79.5 -16t-64.5 -44t-42 -65.5t-12 -80.5z" />
<glyph unicode="/" horiz-adv-x="1073" d="M80 0h272l647 1833h-270z" />
<glyph unicode="0" d="M84 516q0 -176 22 -256q39 -135 166 -213q88 -51 256 -51q170 0 260 49q129 70 173 246q10 45 15 109.5t5 150.5v747q0 334 -129 445q-119 100 -336 100q-51 0 -94 -6q-100 -16 -164 -59q-115 -76 -156 -238q-18 -84 -18 -244v-780zM463 424v1016q0 121 74 121 q72 0 71 -117v-1018q0 -125 -36.5 -145.5t-65.5 -1.5q-43 27 -43 145z" />
<glyph unicode="1" d="M76 1458l258 31v-1489h379v1833l-637 -68v-307z" />
<glyph unicode="2" d="M-6 0h893v338h-361l265 557q150 313 149 475q0 123 -61 252q-76 160 -281 207q-55 14 -135 14q-197 0 -303 -86q-100 -82 -127 -235q-12 -68 -13 -240v-49h386v39q0 215 24 256q18 29 62 22q33 -6 49 -41q23 -49 22 -112q0 -164 -119 -422l-385 -850q-20 -39 -36.5 -70.5 t-28.5 -54.5z" />
<glyph unicode="3" d="M59 539q0 -207 15 -263q35 -137 178 -219q106 -61 260 -61q152 0 260 59q119 66 162 176q33 78 33 207v66q-2 23 -2 37v26v41q0 172 -31 228q-39 71 -191 118q143 57 193 150q37 70 37 217q0 158 -25 242q-43 141 -168 215q-115 66 -286 65q-154 0 -242 -55 q-135 -84 -176 -262q-16 -78 -17 -269h383v236q0 66 68 66q76 0 84 -107q0 -293 -8 -307q-25 -47 -121 -60q-10 -2 -39 -2h-74v-256q156 0 197 -28.5t41 -194.5v-229q0 -115 -72 -115q-78 0 -78 76v289h-381v-86z" />
<glyph unicode="4" d="M45 326h434v-326h377v326h117v299h-125v1208h-393l-353 -975q-27 -72 -41 -118t-16 -66v-180v-168zM285 625l186 528v-528h-186z" />
<glyph unicode="5" d="M66 608q0 -102 3 -171.5t11 -108.5q37 -195 168 -277q88 -57 264 -57q172 0 268 53q133 78 170 268q14 72 15 263v284q0 272 -136 363q-66 43 -170 43q-90 0 -182 -35v256h449v344h-817v-913h333q10 80 39 98q33 20 66 0q39 -25 39 -230v-268q0 -215 -31 -239 q-41 -25 -63 -5q-39 25 -39 265v67h-387z" />
<glyph unicode="6" d="M41 518q0 -158 29 -256q47 -154 170 -225q88 -49 243 -49q178 0 285 57q137 76 174 242q18 76 19 270v186q0 311 -170 404q-70 39 -154 39q-111 0 -217 -68v154q0 244 39 270q35 25 69 4q47 -29 47 -192h386q0 158 -27 239q-41 129 -154 193q-102 59 -286 59 q-178 0 -273 -55q-180 -100 -180 -444v-828zM420 530v107q0 233 24 258q37 39 78 16q53 -29 53 -264v-108q0 -227 -43 -258q-27 -20 -71 2q-41 25 -41 247z" />
<glyph unicode="7" d="M27 1497h512l-344 -1497h395l360 1538v295h-923v-336z" />
<glyph unicode="8" d="M63 510q0 -211 39 -289q90 -184 306 -221q14 -2 30 -2h37q106 0 211 27q123 33 182 92q106 106 107 424q0 63 -4 114.5t-13 92.5q-23 111 -61 149q-28 29 -139 78q111 57 147 110q61 88 62 314q0 143 -25 215q-57 156 -237 205q-96 25 -199 24q-199 0 -311 -94 q-129 -109 -129 -379q0 -20 1 -40.5t3 -41.5q10 -117 55 -180q47 -66 160 -133q-127 -68 -170 -139q-51 -84 -52 -326zM440 1376q0 137 29 156q39 31 68 18q31 -12 38 -26l3 -10q4 -11 10 -31q2 -6 2 -158q0 -180 -17 -197q-33 -31 -67 -20q-30 8 -55 61q-10 25 -11 207z M442 573q5 210 17 226q23 29 53 28q25 0 49.5 -18t30.5 -121v-61q0 -31 2 -62v-37q0 -225 -31 -249q-31 -23 -63 -11q-43 16 -51 66q-10 39 -7 239z" />
<glyph unicode="9" d="M57 1057q0 -283 158 -375q72 -41 158 -41q115 0 221 64v-158q0 -236 -39 -260q-10 -6 -33 -6q-25 -2 -35 4q-37 20 -36 198h-381q-2 -51 2 -104t12 -109q25 -172 211 -241q86 -33 219 -33q190 0 298 71.5t142 219.5q18 74 19 213v770q0 170 -25 272q-45 172 -172 250 q-90 53 -254 53q-166 0 -262 -53q-145 -84 -184 -256q-18 -78 -19 -274v-205zM432 1176v96q0 225 39 258q41 35 76 10q49 -31 49 -254v-121q0 -231 -49 -258q-37 -16 -70 8q-45 33 -45 261z" />
<glyph unicode=":" horiz-adv-x="559" d="M80 199q0 -72 45 -125q66 -78 158 -78q84 0 143 59q61 61 61 144q0 80 -55 135q-63 63 -149 63q-78 0 -142 -59q-61 -59 -61 -139zM84 739q12 -109 115 -164q41 -23 88 -22q49 0 90 22q100 55 110.5 166t-75.5 181q-53 45 -127 45q-33 -1 -58 -9q-76 -25 -116 -90 q-35 -61 -27 -129z" />
<glyph unicode=";" horiz-adv-x="577" d="M98 754q8 -109 111 -166q43 -25 90 -25q43 0 92 23q102 53 111 162q8 106 -72 176q-59 49 -133 49q-88 0 -147.5 -65.5t-51.5 -153.5zM109 201q6 -61 53 -107q39 -25 53 -26q39 -16 47 -31v-21q-16 -35 -63 -61q-33 -20 -49 -29l-17 -10q16 -33 28.5 -51.5t20.5 -26.5 q197 55 277 154q63 76 63 196q0 98 -57 161t-156 63q-84 0 -129 -39q-82 -70 -71 -172z" />
<glyph unicode="&#x3c;" horiz-adv-x="1196" d="M80 551l1003 -375v268l-643 230l643 229v266l-1003 -372v-246z" />
<glyph unicode="=" horiz-adv-x="1798" d="M78 205h1608v346h-1608v-346zM78 778h1608v346h-1608v-346z" />
<glyph unicode="&#x3e;" horiz-adv-x="1196" d="M80 176l1003 375v246l-1003 372v-266l643 -229l-643 -230v-268z" />
<glyph unicode="?" horiz-adv-x="933" d="M84 1452q45 23 77 38t52 21q39 12 84 13q98 0 153.5 -53.5t55.5 -139.5q0 -35 -53 -231l-56 -199q-43 -154 -43 -340h105q53 283 168 438l55 74q94 127 135 207q47 98 47 182q0 45 -8 80q-35 170 -182 254q-106 59 -225 59q-113 0 -365 -77v-326zM209 211 q0 -82 61.5 -145.5t139.5 -63.5q20 0 43 6q115 23 151 144q8 25 8 61q0 78 -47 131q-65 72 -157 72q-78 0 -140 -64q-59 -63 -59 -141z" />
<glyph unicode="@" horiz-adv-x="1576" d="M72 713q0 -223 92 -410q102 -203 280 -303q174 -100 375 -100q301 0 600 215l-47 80q-268 -184 -514 -185q-379 0 -539 344q-70 147 -69 344q0 209 80 379q184 383 534 406q129 8 266 -41q172 -66 254 -199q78 -127 78 -297q0 -129 -43 -254q-68 -197 -180 -223 q-94 -25 -94 74q0 55 37 200l108 426h-221l-25 -112q-10 18 -18 32.5t-14 24.5q-63 100 -197 88q-98 -8 -187 -86t-145 -201q-51 -111 -51 -253q0 -111 37 -181q70 -139 221 -143q162 -2 264 182q12 -78 47 -119q49 -61 144 -61q121 0 223 92q90 80 143 242q41 135 41 272 q0 20 -1 40t-3 36q-20 162 -104 293t-215 201q-143 72 -326 71q-303 0 -516 -176q-315 -260 -315 -698zM666 590q0 86 51 246q61 201 137 233q55 25 90 -12q55 -43 39 -133q-4 -92 -49 -230q-59 -178 -127 -217q-59 -35 -98 0q-43 27 -43 113z" />
<glyph unicode="A" horiz-adv-x="1064" d="M57 0h396v137h192l17 -137h387l-347 1833h-358zM481 440l64 770l67 -770h-131z" />
<glyph unicode="B" horiz-adv-x="1140" d="M123 0h422q373 0 477 152q70 100 70 385q0 190 -32 281t-97 128q-20 14 -57.5 25.5t-90.5 21.5q84 10 109 19q55 20 92 73q57 82 57 265q0 195 -51 295q-70 135 -229 174q-59 14 -234 14h-436v-1833zM510 1141v428q33 -4 54.5 -8.5t31.5 -8.5q37 -14 59 -57 q20 -39 21 -166q0 -100 -14 -129q-12 -25 -30 -37t-38.5 -17t-42.5 -5h-41zM518 305v547q106 -10 148 -74q14 -27 18 -205v-45q0 -127 -10 -153q-25 -51 -70 -64q-4 0 -86 -6z" />
<glyph unicode="C" horiz-adv-x="1124" d="M96 487q0 -313 195 -428q109 -63 301 -63q176 0 272 53q152 84 193 217q22 75 22 262v17v78h-395v-54q0 -231 -47 -278q-20 -20 -41 -20q-19 0 -41 16q-43 31 -43 235v785q0 215 49 249q18 12 35.5 12t36.5 -12q53 -35 53 -296h399q0 8 1 26.5t1 38.5q0 23 1.5 43.5 t1.5 32.5q0 276 -187 387q-94 57 -301 56q-205 0 -303 -54q-203 -115 -203 -471v-832z" />
<glyph unicode="D" horiz-adv-x="1136" d="M117 0h420q168 0 215 6q109 14 192 84q131 106 131 438v766q0 59 -6 116.5t-20 115.5q-35 139 -95 203q-72 74 -209 96q-47 8 -208 8h-420v-1833zM522 291v1255q111 -12 140 -84q12 -35 12 -190v-711q0 -223 -70 -260q-25 -13 -53 -13q-14 0 -29 3z" />
<glyph unicode="E" horiz-adv-x="978" d="M106 0h807v281h-395v495h379v297h-371v459h398v301h-818v-1833z" />
<glyph unicode="F" horiz-adv-x="886" d="M96 0h414v770h301v305h-295v455h324v303h-744v-1833z" />
<glyph unicode="G" horiz-adv-x="1122" d="M90 547q0 -182 19 -256q39 -150 178 -230q117 -65 286 -65h5q172 0 290 65q147 84 189 273q16 76 16 270v400h-487v-293h84v-164q0 -238 -52 -268q-23 -15 -42 -15q-14 0 -27 8q-55 31 -55 246v791q0 203 45 229q24 17 46 17q20 0 38 -13q47 -23 47 -309h403 q0 207 -16 283q-39 168 -183 262q-100 65 -267 65h-5q-178 0 -297 -65q-215 -121 -215 -492v-739z" />
<glyph unicode="H" horiz-adv-x="1114" d="M106 0h396v795h145v-795h404v1833h-404v-739h-145v739h-396v-1833z" />
<glyph unicode="I" horiz-adv-x="573" d="M113 0h395v1833h-395v-1833z" />
<glyph unicode="J" horiz-adv-x="585" d="M51 199v-406q219 6 311 62q160 94 160 440v1538h-399v-1516l-6 -73q-14 -45 -66 -45z" />
<glyph unicode="K" horiz-adv-x="1077" d="M115 0h393v940q10 4 10 0l144 -940h417l-205 993l185 840h-418l-121 -842q0 -10 -10 0v842h-395v-1833z" />
<glyph unicode="L" horiz-adv-x="829" d="M117 0h717v285h-312v1544h-405v-1829z" />
<glyph unicode="M" horiz-adv-x="1531" d="M98 0h383l35 920l166 -920h209l186 920v-920h398l-31 1833h-397l-250 -893l-211 893h-387z" />
<glyph unicode="N" horiz-adv-x="1040" d="M113 0h352v700l211 -700h295v1833h-353v-668l-202 668h-303v-1833z" />
<glyph unicode="O" horiz-adv-x="1173" d="M102 539q0 -170 23 -250q39 -145 172 -221q127 -72 336 -72q178 0 280 55q139 78 183 244q22 82 22 242v14v735q0 156 -16 232q-27 133 -127 221q-121 104 -402 104q-61 0 -104 -6q-106 -16 -174 -59q-129 -82 -168 -246q-25 -96 -25 -262v-731zM510 551v729 q0 223 65 260q19 11 37 11q22 0 43 -15q53 -35 54 -266v-719q0 -227 -62 -264q-19 -11 -38 -11l-44 15q-55 33 -55 260z" />
<glyph unicode="P" horiz-adv-x="1136" d="M117 0h399v528h64q84 0 132 1t64 3q131 16 197 82q112 110 112 397v5v309q0 72 -3 124t-7 85q-23 129 -88 195q-104 104 -438 104h-432v-1833zM520 823v717h72q45 -2 63 -29q27 -33 27 -229v-197q0 -219 -55 -251q-17 -11 -107 -11z" />
<glyph unicode="Q" horiz-adv-x="1165" d="M90 510q0 -319 191 -432q70 -43 251 -78q49 -10 50 -10q6 -4 30 -25q92 -88 191 -131q49 -23 166 -55l174 295q-68 -27 -92 -27q-23 0 -99 31q98 94 131 194q23 74 23 189v821q0 195 -23 274q-43 139 -188 224q-109 63 -305 63q-193 0 -299 -61q-137 -80 -178 -232 q-23 -86 -23 -268v-772zM508 555v727q0 225 65 260q10 6 29 6h10q25 0 41 -10q51 -33 52 -266v-717q0 -231 -60 -266q-17 -9 -35 -9q-24 0 -49 15q-53 35 -53 260z" />
<glyph unicode="R" horiz-adv-x="1163" d="M117 0h422v815q102 -16 139 -61q27 -35 27 -123v-58q-2 -20 -3 -36v-27v-510h404v561q0 195 -21 258q-39 125 -182 185q72 20 105 47q39 31 61 96q16 55 16 201q0 258 -67 354q-66 92 -225 121q-33 4 -91.5 7t-144.5 3h-440v-1833zM528 1100v456h8q133 0 134 -67v-318 q-1 -71 -142 -71z" />
<glyph unicode="S" horiz-adv-x="1040" d="M53 1339q0 -123 64 -237q63 -113 223 -279l104 -108q166 -176 166 -289q0 -94 -45 -115q-12 -6 -23 -6q-20 0 -36 19q-41 31 -41 125q0 12 1 27.5t2 30.5t2 27.5t1 16.5h-405q0 -322 167 -457q125 -98 297 -98q104 0 197 33q223 80 270 307q18 88 19 160q0 131 -70 245 q-70 117 -241 287l-72 70q-174 170 -174 326q0 15 2 30q10 74 47 94q16 9 31.5 9t29.5 -9q33 -20 39 -118v-115h400q0 301 -142 424q-121 106 -360 106q-86 0 -144 -18q-221 -68 -278 -285q-31 -117 -31 -203z" />
<glyph unicode="T" horiz-adv-x="958" d="M49 1532h246v-1532h395v1530h244v303h-885v-301z" />
<glyph unicode="U" horiz-adv-x="1116" d="M102 561q0 -104 3.5 -171.5t11.5 -100.5q37 -150 174 -232q106 -61 284 -61q170 0 273 55q129 72 176 244q25 94 25 260v1278h-408v-1286q0 -227 -35 -252q-14 -9 -29.5 -9t-31.5 9q-45 25 -45 262v1276h-398v-1272z" />
<glyph unicode="V" horiz-adv-x="1093" d="M47 1833l322 -1833h370l346 1833h-413l-107 -885l-104 885h-414z" />
<glyph unicode="W" horiz-adv-x="1517" d="M39 1833l297 -1833h348l88 762l92 -762h350l297 1833h-405l-84 -793l-82 793h-326l-86 -782l-84 782h-405z" />
<glyph unicode="X" horiz-adv-x="1075" d="M55 0h400l96 487l84 -487h412l-240 920l242 913h-412l-88 -475l-78 475h-405l239 -909z" />
<glyph unicode="Y" horiz-adv-x="1019" d="M23 1833l266 -993v-840h409v834l318 999h-402l-106 -498l-92 498h-393z" />
<glyph unicode="Z" horiz-adv-x="854" d="M98 0h703v381h-228l228 1452h-692v-375h210z" />
<glyph unicode="[" horiz-adv-x="851" d="M123 -213h678v254h-318v1542h308v250h-668v-2046z" />
<glyph unicode="\" horiz-adv-x="557" d="M39 1163h67v-1163h383v1427q4 90 21 111q18 23 106 29v266q-76 0 -123 -1t-67 -3q-104 -6 -164 -39q-102 -53 -133 -156q-16 -61 -16 -192h-74v-279z" />
<glyph unicode="]" horiz-adv-x="854" d="M102 41v-254h678v2046h-667v-250h307v-1542h-318z" />
<glyph unicode="^" horiz-adv-x="1015" d="M80 1559h266l160 159l160 -162h274l-246 390h-375z" />
<glyph unicode="_" horiz-adv-x="1140" d="M-43 -29v-143h1227v143h-1227z" />
<glyph unicode="`" horiz-adv-x="804" d="M80 1950l383 -383h268l-192 383h-459z" />
<glyph unicode="a" horiz-adv-x="1048" d="M84 395q0 -145 16 -211q33 -113 138 -164q49 -24 109 -24h5q131 0 271 117v-113h374v1442h-370v-88q-59 49 -146 82q-55 20 -114 20q-88 0 -152 -45q-131 -92 -131 -401v-615zM463 451v561q0 190 53 219q9 4 20 4q16 -1 32 -9q28 -14 55 -44v-942q-29 -23 -62 -37 q-12 -2 -23 -2q-24 0 -38 10q-37 25 -37 240z" />
<glyph unicode="b" horiz-adv-x="1064" d="M113 0h366v109q84 -74 174 -103q47 -10 86 -10q90 0 162 49q90 68 111 174q6 33 6 182v609q0 342 -178 422q-53 26 -111 26h-4q-125 0 -238 -110v485h-374v-1833zM479 250v942q43 31 62 39q16 6 29 6q15 0 26 -8q39 -27 39 -219v-586q0 -188 -33 -213q-12 -13 -33 -13 q-12 0 -28 5q-33 8 -62 47z" />
<glyph unicode="c" horiz-adv-x="972" d="M90 481q0 -176 21 -239q37 -119 161 -193q94 -55 230 -55q135 0 237 55q127 72 170 207q25 74 31 244h-342v-160q0 -68 -41 -78q-8 -2 -15 -2q-29 0 -50 25q-20 20 -21 209v436q0 217 31 241q23 16 55 3q41 -16 41 -254h338q0 188 -16 260q-35 143 -166 221 q-96 55 -252 55q-137 0 -215 -45q-135 -78 -174 -229q-23 -86 -23 -250v-451z" />
<glyph unicode="d" horiz-adv-x="1064" d="M96 408q0 -76 4 -128.5t13 -84.5q35 -117 139 -168q63 -31 135 -31q121 0 242 98v-94h383v1833h-375v-485q-61 59 -139 88q-53 20 -111 20q-84 0 -149 -45q-141 -96 -142 -360v-643zM479 426v575q0 203 47 228q12 6 25 6t29 -6q39 -16 53 -43v-936q-72 -47 -88 -47 q-14 0 -29 8q-37 25 -37 215z" />
<glyph unicode="e" horiz-adv-x="1026" d="M90 510q0 -160 25 -242q39 -143 170 -221q90 -51 250 -51q168 0 270 55q125 72 158 207q18 70 18 240h-379q0 -198 -35 -226q-19 -15 -37 -15q-15 0 -28 11q-33 27 -33 262v111h506v264q0 223 -14 279q-33 137 -166 217q-92 55 -246 55q-156 0 -250 -55 q-135 -78 -180 -236q-29 -102 -29 -270v-385zM465 911q0 233 35 263q20 16 40 16q10 0 19 -4q25 -7 33 -21q4 -5 16 -37q10 -26 11 -151q0 -30 -1 -66h-153z" />
<glyph unicode="f" horiz-adv-x="557" d="M39 1163h67v-1163h383v1163h86v279h-77q2 88 14 102q16 16 104 23v266q-76 0 -123 -1t-67 -3q-104 -6 -164 -39q-102 -53 -133 -156q-16 -61 -16 -192h-74v-279z" />
<glyph unicode="g" horiz-adv-x="1069" d="M80 -111q211 -104 436 -104q180 0 306 73.5t167 227.5q20 74 21 240v1116h-377v-105q-63 61 -115 88q-61 31 -137 31q-74 0 -129 -31q-154 -90 -154 -413v-422q0 -164 23 -238q39 -131 170 -186q55 -25 108 -25q115 0 228 119q0 -86 -6 -106q-10 -41 -59.5 -74 t-115.5 -33q-90 0 -253 76zM473 580v417q0 203 37 232q16 10 29 10q23 0 94 -68v-768q-35 -29 -55 -36q-16 -8 -31 -8t-29 8q-45 25 -45 213z" />
<glyph unicode="h" horiz-adv-x="1060" d="M109 0h378v1153q18 20 40 44t40 24q14 0 23 -9q39 -27 39 -219v-993h375v1004q0 76 -3.5 126t-7.5 78q-25 131 -116 197q-72 51 -166 51q-45 0 -95 -16q-45 -33 -79.5 -60.5t-57.5 -52.5v506h-370v-1833z" />
<glyph unicode="i" horiz-adv-x="546" d="M104 0h375v1442h-375v-1442zM104 1749q0 -39 15.5 -74t42 -60.5t61.5 -40.5t74 -15q47 0 88 24q94 55 96 154v9q0 96 -80 155q-46 34 -103 34h-3q-27 0 -62 -10q-129 -43 -129 -176z" />
<glyph unicode="j" horiz-adv-x="550" d="M29 57l61 -276q184 18 256 65q102 66 131 170q10 47 10 195v1231h-374v-1243q0 -59 -11 -95q-16 -47 -73 -47zM115 1720q12 -102 108 -151q37 -16 74 -17q49 0 90 23q96 55 102 156v13q0 89 -77 150q-51 39 -111 39q-26 0 -57 -10q-70 -25 -104 -82q-27 -45 -27 -95 q0 -13 2 -26z" />
<glyph unicode="k" horiz-adv-x="1015" d="M96 0h381v733q2 8 12 0l148 -733h375l-174 799l170 643h-379l-140 -651q-8 -12 -12 -3v1045h-381v-1833z" />
<glyph unicode="l" horiz-adv-x="538" d="M109 0h374v1833h-374v-1833z" />
<glyph unicode="m" horiz-adv-x="1593" d="M113 0h379v1153q31 49 57 61q29 12 57 -6q29 -16 29 -211v-997h383v1157q14 31 49 51q33 10 57 -4q32 -15 32 -164q0 -24 -1 -51v-989h381v1028q0 186 -18 242q-33 113 -168 162q-66 26 -121 26h-4q-111 0 -250 -164q-63 104 -152 140q-58 22 -102 22h-4q-98 0 -228 -117 v103h-376v-1442z" />
<glyph unicode="n" horiz-adv-x="1067" d="M113 0h379v1153q4 4 38 45q20 25 39 25q14 0 33 -13q34 -23 34 -166q0 -22 -1 -47v-997h375v1020q0 166 -19 231q-33 123 -155 181q-53 24 -103 24h-4q-109 0 -240 -121v107h-376v-1442z" />
<glyph unicode="o" horiz-adv-x="1050" d="M88 528q0 -174 21 -241q37 -143 172 -219q127 -72 274 -72q141 0 254 63q141 78 180 226q20 74 21 256v346q0 150 -17 237q-31 150 -125 230q-123 104 -325 104q-45 0 -94 -6q-92 -12 -173 -59q-129 -82 -170 -236q-18 -78 -18 -250v-379zM461 539v372q0 207 31 242 q25 30 54 30q14 0 29 -7q66 -29 66 -261v-376q0 -223 -53 -258q-13 -11 -30 -11q-19 0 -42 15q-55 31 -55 254z" />
<glyph unicode="p" horiz-adv-x="1069" d="M109 -213h374v303q39 -41 80 -55q6 -4 25.5 -10.5t54.5 -16.5q45 -10 84 -10q88 0 160 49q131 98 131 379v631q0 154 -17 215q-35 111 -143 162q-51 24 -100 24h-4q-127 0 -271 -123v107h-374v-1655zM483 250v936q49 55 92 55q16 0 27 -8q33 -18 33 -175v-36v-596 q0 -178 -45 -217q-16 -12 -33 -12q-27 0 -50.5 22.5t-23.5 30.5z" />
<glyph unicode="q" horiz-adv-x="1050" d="M88 426q0 -281 131 -379q70 -49 160 -49q39 0 84 10q109 35 160 82v-303h374v1655h-374v-107q-145 123 -271 123q-53 0 -104 -24q-109 -51 -144 -162q-16 -61 -16 -215v-631zM471 426v596v34q0 158 35 177q10 8 26 8q43 0 91 -55v-936q0 -8 -24 -30.5t-50 -22.5 q-18 0 -33 12q-45 39 -45 217z" />
<glyph unicode="r" horiz-adv-x="679" d="M102 0h371v788q0 53 1 87t3 49q10 98 55 125q10 8 29 8q39 0 80 -47v434q-40 11 -71 11q-28 0 -48 -9q-61 -66 -92 -117v113h-328v-1442z" />
<glyph unicode="s" horiz-adv-x="960" d="M63 1057q0 -123 70 -217q29 -41 86 -95.5t143 -121.5l50 -39q153 -122 153 -221v-9q-2 -55 -39 -78q-18 -12 -34 -12t-31 12q-39 27 -39 193h-344q0 -160 14 -215q27 -111 127 -184.5t275 -73.5q119 0 211 35q190 84 221 305q4 31 6 58.5t2 49.5q0 123 -70 218 q-29 39 -90 98t-156 137l-38 33q-41 35 -67 56.5t-34 31.5q-47 51 -47 88q4 55 39 76q16 9 32 9q17 -1 33 -11q32 -20 39 -78v-98h330q-6 94 -9 145t-5 59q-25 117 -113 178q-102 72 -299 72q-117 0 -184 -28q-197 -84 -225 -285q-6 -49 -7 -88z" />
<glyph unicode="t" horiz-adv-x="544" d="M18 1163h97v-1163h368v1163h90v279h-90v268h-374v-268h-91v-279z" />
<glyph unicode="u" horiz-adv-x="1083" d="M109 557q0 -100 4 -166.5t12 -101.5q41 -160 176 -238q98 -55 264 -55q176 0 273 53q131 76 172 264q18 88 18 265v864h-371v-903q0 -231 -43 -258q-23 -16 -45 -16q-14 0 -28 7q-53 31 -54 269v901h-378v-885z" />
<glyph unicode="v" horiz-adv-x="958" d="M18 1442l330 -1442h287l328 1442h-379l-92 -787l-86 787h-388z" />
<glyph unicode="w" horiz-adv-x="1452" d="M39 1442l334 -1442h280l99 715l114 -715h269l311 1442h-371l-78 -826l-120 826h-259l-102 -795l-96 795h-381z" />
<glyph unicode="x" horiz-adv-x="1011" d="M20 1442l304 -705l-293 -737h383l104 401l119 -401h375l-307 739l294 703h-385l-98 -414l-119 414h-377z" />
<glyph unicode="y" horiz-adv-x="935" d="M10 1442l281 -1059q35 -133 35 -170q0 -70 -39 -100q-29 -23 -64 -23q-57 0 -153 72v-332q106 -43 206 -43q66 0 121 23q96 41 156 161q29 59 63 185l338 1286h-389l-84 -854l-75 854h-396z" />
<glyph unicode="z" horiz-adv-x="759" d="M78 0h627v240h-197l207 1202h-621v-256h185z" />
<glyph unicode="{" horiz-adv-x="1073" d="M96 737q186 -35 244 -71q94 -57 117 -158q6 -29 6 -164v-123q0 -127 10 -178q16 -88 86 -158q76 -84 240 -123q121 -29 237 -28q2 12 2 30v39v33q-121 8 -219 76q-98 66 -119 151q-6 27 -6 164v107q0 252 -114 348q-90 76 -353 115q254 49 338 108q92 66 119 172 q14 51 14 183v118q0 135 2 144q8 63 68 123q90 90 264 114q6 6 6 49v27q0 15 -2 29q-256 -8 -395 -88q-121 -72 -158 -193q-20 -68 -20 -217v-109q0 -211 -78 -292q-72 -72 -289 -109v-119z" />
<glyph unicode="|" horiz-adv-x="573" d="M205 -178h164v1907h-164v-1907z" />
<glyph unicode="}" horiz-adv-x="1073" d="M49 -164v-104q260 18 371 75q135 72 178 183q27 68 27 237v142q0 195 92 272q80 68 274 88v123q-174 27 -254 84q-119 88 -119 297v133q0 139 -10 190q-14 90 -88 164q-72 76 -246 115q-131 29 -225 29v-105q109 -12 178 -47q117 -59 146 -149q12 -41 12 -179v-114 q0 -258 113 -352q86 -76 354 -123q-246 -39 -342 -111q-125 -94 -125 -354v-107q0 -195 -63 -272q-72 -92 -273 -115z" />
<glyph unicode="~" horiz-adv-x="1067" d="M80 1554h121q27 106 84 142q20 14 47 14q37 0 92 -37q121 -80 158 -100q59 -33 108 -33q47 0 109 27q117 51 162 182q18 57 36 229h-133q-18 -111 -86 -141q-18 -8 -41 -8q-33 0 -79 29.5t-93 62.5q-84 55 -190 55q-59 0 -105 -22q-182 -96 -190 -400z" />
<glyph unicode="&#xa1;" horiz-adv-x="565" d="M102 1219q12 -109 111 -162q45 -23 92 -23q49 0 96 25q96 51 107 164q10 111 -78 182q-53 43 -127 43q-34 0 -59 -8q-78 -25 -114 -87.5t-28 -133.5zM106 43q0 -141 52.5 -202.5t146.5 -61.5q92 0 148 69q45 57 45 197q0 147 -62 447l-84 403h-100l-111 -567 q-35 -180 -35 -285z" />
<glyph unicode="&#xa2;" horiz-adv-x="1056" d="M96 432q0 -244 211 -393l-57 -236h88l59 199q61 -20 150 -20q156 0 258 67q190 131 190 412v28t-2 29h-319q0 -176 -23 -211q-33 -51 -82 -51q-45 -8 -75 29q-8 8 -9 34q0 49 43 209l158 590v-203h305q0 205 -26 283q-43 123 -195 221l35 166h-86l-39 -135 q-78 12 -141 12q-137 0 -232 -55q-141 -80 -184 -225q-27 -80 -27 -262v-488zM453 588v297q-1 279 69 297q45 10 84 -2z" />
<glyph unicode="&#xa3;" horiz-adv-x="1142" d="M106 -14q94 27 189 26q57 0 154 -12h88q82 -10 133 -15t71 -5q125 0 207 69q109 96 135 254q6 45 7 252h-347q0 -156 -24 -180q-23 -23 -117 -21q-35 2 -63.5 -2t-51.5 -12q61 125 62 399v62h262v327h-256v158q0 240 41 268q33 16 57 2q45 -27 45 -256h375q0 203 -14 263 q-33 150 -168 227q-96 57 -266 57t-258 -51q-139 -80 -177 -246q-16 -76 -16 -270v-147h-68v-332h74v-144q0 -141 -6 -180q-12 -111 -68 -180v-311z" />
<glyph unicode="&#xa4;" horiz-adv-x="1228" d="M23 260l157 -186l197 178q109 -66 237 -66q125 0 238 66l197 -178l157 186l-188 152q47 129 47 225q0 106 -47 225l188 152l-157 186l-197 -178q-109 66 -238 65q-125 0 -237 -65l-197 178l-157 -186l188 -152q-47 -129 -47 -225q0 -106 47 -225zM451 637q0 92 46.5 138 t116.5 46t117 -46t47 -138t-47 -138t-117 -46t-116.5 46t-46.5 138z" />
<glyph unicode="&#xa5;" horiz-adv-x="1064" d="M72 520h293v-520h354v520h293v213h-295l47 230h248v213h-185l181 634h-340l-121 -665h-21l-129 665h-321l180 -634h-184v-213h245l52 -230h-297v-213z" />
<glyph unicode="&#xa6;" horiz-adv-x="454" d="M115 0h225v543h-225v-543zM115 905h225v543h-225v-543z" />
<glyph unicode="&#xa7;" horiz-adv-x="1228" d="M96 1067q0 -123 160 -285q23 -23 95.5 -87t197.5 -173q160 -135 160 -192q0 -49 -31 -81t-80 -32q-104 0 -199 150l-217 -164q193 -203 428 -203q170 0 277 88q100 82 100 211t-108 254q106 23 174 102q72 84 71 174q0 113 -153 271q-29 29 -99.5 90t-187.5 158 q-154 129 -154 174q0 96 95 96q66 0 112 -39l25.5 -25.5t56.5 -60.5l193 164q-184 178 -398 178q-84 0 -150.5 -21.5t-113.5 -61.5t-72.5 -94t-25.5 -122q0 -90 119 -209q-121 -16 -195 -80q-80 -72 -80 -180zM375 1094q0 76 102 75q41 0 203 -155q166 -164 166 -217 q0 -78 -101 -78q-39 0 -202 158q-168 162 -168 217z" />
<glyph unicode="&#xa8;" horiz-adv-x="1026" d="M80 1790q6 -96 92 -148q33 -20 82 -20q45 0 80 18q86 43 100 138q12 88 -61 155q-52 45 -115 45q-39 0 -72.5 -14t-58.5 -40t-37 -60.5t-10 -73.5zM598 1780q8 -68 58.5 -112t117.5 -44q47 0 88 23q88 53 90 143q2 94 -73 154q-50 36 -107 36q-80 0 -131 -61 q-53 -59 -43 -139z" />
<glyph unicode="&#xa9;" horiz-adv-x="1638" d="M63 1100q0 -334 232 -541q217 -190 528 -190t527 190q233 205 233 541q0 334 -233 540q-215 190 -527 191q-311 0 -528 -191q-231 -207 -232 -540zM289 1100q0 250 153 407q156 160 381 160q221 0 379 -160q156 -158 156 -407q0 -250 -156 -408q-158 -160 -379 -160 q-223 0 -381 158q-154 160 -153 410zM455 1106q0 -178 110.5 -297t288.5 -119q129 0 224.5 75t117.5 216h-166q-16 -127 -176 -127q-88 0 -143.5 72.5t-55.5 183.5q0 117 50.5 183.5t144.5 66.5q150 0 178 -121h160q-25 137 -116 211t-222 74q-182 0 -289 -117 q-106 -115 -106 -301z" />
<glyph unicode="&#xab;" horiz-adv-x="1132" d="M80 721l164 -721h303l-152 702l180 723h-309zM561 721l166 -721h301l-151 702l180 723h-309z" />
<glyph unicode="&#xad;" horiz-adv-x="890" d="M96 684h733v354h-733v-354z" />
<glyph unicode="&#xae;" horiz-adv-x="1638" d="M61 1104q0 -334 232 -541q217 -190 528 -190t527 190q233 205 233 541q0 334 -233 541q-215 190 -527 190q-311 0 -528 -190q-231 -207 -232 -541zM287 1104q0 250 153 407q156 160 381 160q221 0 379 -160q156 -158 156 -407q0 -250 -156 -408q-158 -160 -379 -159 q-223 0 -381 157q-154 160 -153 410zM528 713h164v336h84l182 -336h160l-205 348q233 8 234 201q0 131 -86 186q-78 49 -242 49h-291v-784zM692 1171v203h123q160 0 160 -92q0 -111 -119 -111h-164z" />
<glyph unicode="&#xb4;" horiz-adv-x="790" d="M80 1565h258l381 377h-451z" />
<glyph unicode="&#xb6;" horiz-adv-x="1177" d="M39 1313l217 -201h176v-1112h258v1642h94v-1642l256 -4v1837h-786l-215 -227v-293z" />
<glyph unicode="&#xb8;" horiz-adv-x="589" d="M80 -213h391l47 199h-280z" />
<glyph unicode="&#xbb;" horiz-adv-x="1132" d="M80 1425l180 -723l-151 -702h303l163 721l-184 704h-311zM561 1425l180 -723l-151 -702h303l164 721l-185 704h-311z" />
<glyph unicode="&#xbc;" horiz-adv-x="1918" d="M90 481q0 -176 21 -239q37 -119 161 -193q94 -55 230 -55q135 0 237 55q127 72 170 207q25 74 31 244h-342v-160q0 -68 -41 -78q-39 -8 -65 23q-20 20 -21 209v436q0 217 31 241q23 16 55 3q41 -16 41 -254h338q0 188 -16 260q-35 143 -166 221q-96 55 -252 55 q-137 0 -215 -45q-135 -78 -174 -229q-23 -86 -23 -250v-451zM971 0h379v1153q18 20 39.5 44t40.5 24q14 0 22 -9q39 -27 39 -219v-993h375v1004q0 76 -3 126t-8 78q-25 131 -116 197q-72 51 -166 51q-45 0 -94 -16q-45 -33 -80 -60.5t-58 -52.5v506h-370v-1833z" />
<glyph unicode="&#xbd;" horiz-adv-x="1886" d="M90 481q0 -176 21 -239q37 -119 161 -193q94 -55 230 -55q135 0 237 55q127 72 170 207q25 74 31 244h-342v-160q0 -68 -41 -78q-39 -8 -65 23q-20 20 -21 209v436q0 217 31 241q23 16 55 3q41 -16 41 -254h338q0 188 -16 260q-35 143 -166 221q-96 55 -252 55 q-137 0 -215 -45q-135 -78 -174 -229q-23 -86 -23 -250v-451zM971 0h381v733q2 8 12 0l147 -733h375l-174 799l170 643h-379l-139 -651q-8 -12 -12 -3v1045h-381v-1833z" />
<glyph unicode="&#xbe;" horiz-adv-x="2383" d="M39 1163h67v-1163h383v1427q4 90 21 111q18 23 106 29v266q-76 0 -123 -1t-67 -3q-104 -6 -164 -39q-102 -53 -133 -156q-16 -61 -16 -192h-74v-279zM553 481q0 -176 20 -239q37 -119 162 -193q94 -55 230 -55q135 0 237 55q127 72 170 207q25 74 31 244h-342v-160 q0 -68 -41 -78q-39 -8 -66 23q-20 20 -20 209v436q0 217 31 241q23 16 55 3q41 -16 41 -254h338q0 188 -17 260q-35 143 -165 221q-96 55 -252 55q-137 0 -215 -45q-135 -78 -175 -229q-23 -86 -22 -250v-451zM1434 0h378v1153q18 20 40 44t40 24q14 0 23 -9q39 -27 39 -219 v-993h375v1004q0 76 -3.5 126t-7.5 78q-25 131 -116 197q-72 51 -166 51q-45 0 -94 -16q-45 -33 -80 -60.5t-58 -52.5v506h-370v-1833z" />
<glyph unicode="&#xbf;" horiz-adv-x="935" d="M76 162q0 -78 39 -162q98 -228 395 -236q63 -2 151.5 14.5t202.5 51.5v324q-133 -74 -223 -74q-78 0 -131 49t-53 117q0 45 24 116q12 29 24.5 60t22.5 61l23 64q29 86 47 168t25 168h-131q-49 -152 -130 -256l-55 -60q-121 -131 -170 -213q-61 -98 -61 -192zM334 1223 q8 -106 115 -166q41 -23 90 -23q45 0 94 23q100 51 110 162q8 113 -73 182q-59 47 -131 47q-33 0 -58 -8q-164 -53 -147 -217z" />
<glyph unicode="&#xc0;" horiz-adv-x="1069" d="M66 0h395v137h192l17 -137h387l-346 1833h-359zM66 2449l383 -383h266l-193 383h-456zM489 440l62 770l67 -770h-129z" />
<glyph unicode="&#xc1;" horiz-adv-x="1069" d="M66 0h395v137h192l17 -137h387l-346 1833h-359zM305 2071h256l381 378h-450zM489 440l62 770l67 -770h-129z" />
<glyph unicode="&#xc2;" horiz-adv-x="1069" d="M66 0h395v137h192l17 -137h387l-346 1833h-359zM96 2097h266l158 160l162 -162h272l-243 389h-375zM489 440l62 770l67 -770h-129z" />
<glyph unicode="&#xc3;" horiz-adv-x="1069" d="M66 0h395v137h192l17 -137h387l-346 1833h-359zM66 2038h118q27 109 84 143q20 14 47 14q35 0 93 -38q61 -41 101 -66l56 -35q63 -33 111 -33q45 0 106 27q115 51 162 184q20 63 37 228h-133q-18 -111 -86 -142q-18 -8 -41 -8q-33 0 -79 30t-93 62q-84 55 -193 56 q-61 0 -100 -21q-186 -94 -190 -401zM489 440l62 770l67 -770h-129z" />
<glyph unicode="&#xc4;" horiz-adv-x="1069" d="M66 0h395v137h192l17 -137h387l-346 1833h-359zM115 2204q6 -96 92 -148q33 -20 80 -20q43 0 80 18q88 43 102 137q12 88 -61 156q-52 45 -115 45q-39 0 -73 -14.5t-58.5 -40t-36.5 -60t-10 -73.5zM489 440l62 770l67 -770h-129zM633 2193q8 -68 57 -111.5t117 -43.5 q47 0 88 22q88 51 92 144q2 94 -74 153q-49 37 -106 37q-80 0 -131 -61q-53 -59 -43 -140z" />
<glyph unicode="&#xc5;" horiz-adv-x="1069" d="M51 0h398v137h192l14 -137h389l-346 1833h-360zM248 2300q6 -131 127 -205q51 -33 123 -33q57 0 106 23q141 63 141 227q0 111 -81 187q-74 67 -170 67q-74 0 -140 -47q-113 -82 -106 -219zM377 2296q-14 82 63 129q31 18 60 18q47 0 85 -39t40 -86q2 -70 -58 -114 q-51 -39 -108 -13q-66 31 -82 105zM477 440l62 770l67 -770h-129z" />
<glyph unicode="&#xc6;" horiz-adv-x="1435" d="M68 0h415v238h135v-238h750v272h-348v494h330v293h-328v469h352v305h-999zM498 510l127 983v-983h-127z" />
<glyph unicode="&#xc7;" horiz-adv-x="1124" d="M96 487q0 -313 195 -428q109 -63 301 -63q176 0 272 53q152 84 193 217q23 78 22 279v78h-395v-54q0 -231 -47 -278q-37 -37 -82 -4q-43 31 -43 235v785q0 215 49 249q35 25 72 0q53 -35 53 -296h399q0 8 1 26.5t1 38.5q0 23 1.5 43.5t1.5 32.5q0 276 -187 387 q-94 57 -301 57q-205 0 -303 -55q-203 -115 -203 -471v-832zM315 -213h390l47 199h-281z" />
<glyph unicode="&#xc8;" horiz-adv-x="970" d="M-14 2449l381 -383h268l-193 383h-456zM106 0h807v281h-395v495h379v297h-371v459h398v301h-818v-1833z" />
<glyph unicode="&#xc9;" horiz-adv-x="970" d="M106 0h807v281h-395v495h379v297h-371v459h398v301h-818v-1833zM346 2071h258l379 378h-451z" />
<glyph unicode="&#xca;" horiz-adv-x="970" d="M96 2083h266l158 158l162 -162h272l-243 391h-375zM106 0h807v281h-395v495h379v297h-371v459h398v301h-818v-1833z" />
<glyph unicode="&#xcb;" horiz-adv-x="970" d="M74 2204q6 -96 92 -148q33 -20 80 -20q43 0 80 18q88 43 102 137q12 88 -61 156q-52 45 -115 45q-39 0 -73 -14.5t-58.5 -40t-36.5 -60t-10 -73.5zM106 0h807v281h-395v495h379v297h-371v459h398v301h-818v-1833zM592 2193q8 -68 57 -111.5t117 -43.5q47 0 88 22 q88 51 92 144q2 94 -74 153q-49 37 -106 37q-80 0 -131 -61q-53 -59 -43 -140z" />
<glyph unicode="&#xcc;" horiz-adv-x="573" d="M-35 2449l381 -383h268l-192 383h-457zM113 0h395v1833h-395v-1833z" />
<glyph unicode="&#xcd;" horiz-adv-x="573" d="M96 2079h258l379 377h-448zM113 0h395v1833h-395v-1833z" />
<glyph unicode="&#xce;" horiz-adv-x="573" d="M-121 2097h264l158 160l162 -162h274l-245 389h-375zM113 0h395v1833h-395v-1833z" />
<glyph unicode="&#xcf;" horiz-adv-x="573" d="M-135 2243q6 -98 90 -148q33 -20 80 -20q43 0 80 18q88 45 100 137t-61 156q-52 45 -115 45q-76 0 -127 -54.5t-47 -133.5zM113 0h395v1833h-395v-1833zM381 2232q12 -100 98 -139q37 -16 76 -16q47 0 88 22q84 53 90 144q6 94 -71 153q-50 37 -107 37q-41 0 -75 -16.5 t-57.5 -44t-35.5 -64.5t-6 -76z" />
<glyph unicode="&#xd1;" horiz-adv-x="1038" d="M74 2099h119q27 109 83 144q23 14 50 14q35 0 90 -37q61 -41 101 -65.5t56 -34.5q63 -33 111 -33q45 0 107 27q117 51 161 182q18 57 37 229h-133q-18 -111 -86 -141q-18 -8 -41 -8q-33 0 -79 29.5t-93 62.5q-84 55 -188 55q-61 0 -107 -22q-184 -96 -188 -402zM113 0 h352v700l211 -700h295v1833h-353v-668l-202 668h-303v-1833z" />
<glyph unicode="&#xd2;" horiz-adv-x="1146" d="M88 539q0 -170 23 -250q39 -143 174 -221q127 -72 336 -72q178 0 280 55q139 78 182 244q23 86 23 256v735q0 156 -16 232q-27 133 -127 221q-121 104 -402 104q-61 0 -106 -6q-106 -16 -174 -59q-129 -82 -168 -246q-25 -96 -25 -262v-731zM260 2449l383 -383h268 l-192 383h-459zM498 551v729q0 227 63 260q43 23 82 -4q51 -33 51 -266v-719q0 -229 -59 -264q-39 -25 -84 4q-53 35 -53 260z" />
<glyph unicode="&#xd3;" horiz-adv-x="1146" d="M88 539q0 -170 23 -250q39 -143 174 -221q127 -72 336 -72q178 0 280 55q139 78 182 244q23 86 23 256v735q0 156 -16 232q-27 133 -127 221q-121 104 -402 104q-61 0 -106 -6q-106 -16 -174 -59q-129 -82 -168 -246q-25 -96 -25 -262v-731zM330 2071h258l381 378h-451z M498 551v729q0 227 63 260q43 23 82 -4q51 -33 51 -266v-719q0 -229 -59 -264q-39 -25 -84 4q-53 35 -53 260z" />
<glyph unicode="&#xd4;" horiz-adv-x="1146" d="M88 539q0 -170 23 -250q39 -143 174 -221q127 -72 336 -72q178 0 280 55q139 78 182 244q23 86 23 256v735q0 156 -16 232q-27 133 -127 221q-121 104 -402 104q-61 0 -106 -6q-106 -16 -174 -59q-129 -82 -168 -246q-25 -96 -25 -262v-731zM152 2089h264l159 160 l162 -162h273l-244 391h-375zM498 551v729q0 227 63 260q43 23 82 -4q51 -33 51 -266v-719q0 -229 -59 -264q-39 -25 -84 4q-53 35 -53 260z" />
<glyph unicode="&#xd5;" horiz-adv-x="1146" d="M66 2038h118q27 109 84 143q20 14 47 14q35 0 93 -38q61 -41 101 -66l56 -35q63 -33 111 -33q45 0 106 27q115 51 162 184q20 63 37 228h-133q-18 -111 -86 -142q-18 -8 -41 -8q-33 0 -79 30t-93 62q-84 55 -193 56q-61 0 -100 -21q-186 -94 -190 -401zM88 539 q0 -170 23 -250q39 -143 174 -221q127 -72 336 -72q178 0 280 55q139 78 182 244q23 86 23 256v735q0 156 -16 232q-27 133 -127 221q-121 104 -402 104q-61 0 -106 -6q-106 -16 -174 -59q-129 -82 -168 -246q-25 -96 -25 -262v-731zM498 551v729q0 227 63 260q43 23 82 -4 q51 -33 51 -266v-719q0 -229 -59 -264q-39 -25 -84 4q-53 35 -53 260z" />
<glyph unicode="&#xd6;" horiz-adv-x="1153" d="M88 539q0 -170 23 -250q39 -143 174 -221q127 -72 336 -72q178 0 280 55q139 78 182 244q23 86 23 256v735q0 156 -16 232q-27 133 -127 221q-121 104 -402 104q-61 0 -106 -6q-106 -16 -174 -59q-129 -82 -168 -246q-25 -96 -25 -262v-731zM156 2204q6 -96 92 -148 q33 -20 80 -20q43 0 80 18q88 43 102 137q12 88 -61 156q-52 45 -115 45q-39 0 -73 -14.5t-58.5 -40t-36.5 -60t-10 -73.5zM498 551v729q0 227 63 260q43 23 82 -4q51 -33 51 -266v-719q0 -229 -59 -264q-39 -25 -84 4q-53 35 -53 260zM674 2193q8 -68 57 -111.5t117 -43.5 q47 0 88 22q88 51 92 144q2 94 -74 153q-49 37 -106 37q-80 0 -131 -61q-53 -59 -43 -140z" />
<glyph unicode="&#xd7;" horiz-adv-x="1613" d="M207 313l246 -245l350 350l346 -346l250 247l-348 349l350 350l-244 244l-350 -351l-350 351l-250 -248l350 -350z" />
<glyph unicode="&#xd8;" horiz-adv-x="1173" d="M100 -8h224l22 51q123 -47 287 -47q178 0 280 55q139 78 183 244q23 86 22 256v735q0 68 -3 117t-7 80q-14 111 -76 194l68 181h-217l-23 -58q-121 43 -287 43q-61 0 -104 -6q-106 -16 -174 -59q-129 -82 -168 -246q-25 -96 -25 -262v-731q0 -63 2 -108.5t7 -74.5 q16 -109 67 -182zM510 967v313q0 223 65 260q39 23 78 -2t49 -113zM512 438l197 469v-356q0 -227 -62 -264q-41 -23 -84 4q-41 27 -51 147z" />
<glyph unicode="&#xd9;" horiz-adv-x="1112" d="M102 561q0 -104 3.5 -171.5t11.5 -100.5q37 -150 174 -232q106 -61 284 -61q170 0 273 55q129 72 176 244q25 94 25 260v1278h-408v-1286q0 -227 -35 -252q-29 -18 -61 0q-45 25 -45 262v1276h-398v-1272zM260 2449l383 -383h268l-192 383h-459z" />
<glyph unicode="&#xda;" horiz-adv-x="1112" d="M102 561q0 -104 3.5 -171.5t11.5 -100.5q37 -150 174 -232q106 -61 284 -61q170 0 273 55q129 72 176 244q25 94 25 260v1278h-408v-1286q0 -227 -35 -252q-29 -18 -61 0q-45 25 -45 262v1276h-398v-1272zM330 2071h258l381 378h-451z" />
<glyph unicode="&#xdb;" horiz-adv-x="1112" d="M102 561q0 -104 3.5 -171.5t11.5 -100.5q37 -150 174 -232q106 -61 284 -61q170 0 273 55q129 72 176 244q25 94 25 260v1278h-408v-1286q0 -227 -35 -252q-29 -18 -61 0q-45 25 -45 262v1276h-398v-1272zM152 2089h264l159 160l162 -162h273l-244 391h-375z" />
<glyph unicode="&#xdc;" horiz-adv-x="1112" d="M102 561q0 -104 3.5 -171.5t11.5 -100.5q37 -150 174 -232q106 -61 284 -61q170 0 273 55q129 72 176 244q25 94 25 260v1278h-408v-1286q0 -227 -35 -252q-29 -18 -61 0q-45 25 -45 262v1276h-398v-1272zM156 2204q6 -96 92 -148q33 -20 80 -20q43 0 80 18 q88 43 102 137q12 88 -61 156q-52 45 -115 45q-39 0 -73 -14.5t-58.5 -40t-36.5 -60t-10 -73.5zM674 2193q8 -68 57 -111.5t117 -43.5q47 0 88 22q88 51 92 144q2 94 -74 153q-49 37 -106 37q-80 0 -131 -61q-53 -59 -43 -140z" />
<glyph unicode="&#xdd;" horiz-adv-x="1019" d="M23 1833l266 -993v-840h409v834l318 999h-402l-106 -498l-92 498h-393zM330 2071h258l381 378h-451z" />
<glyph unicode="&#xdf;" horiz-adv-x="1067" d="M104 0h383v1317q0 203 39 229q29 20 70 4q45 -27 45 -120v-150q0 -61 -14 -78q-25 -39 -76 -39v-276q35 8 63 -23q14 -18 13 -82v-430q-4 -55 -19 -67q-23 -23 -63 -19v-276q186 -14 284 33q127 66 164 251q8 41 12.5 103.5t4.5 150.5v107q0 170 -13 213q-28 92 -153 180 q117 78 153 207q23 78 19 211q-4 219 -207 321q-109 55 -266 56q-156 0 -246 -58q-131 -80 -172 -243q-20 -76 -21 -250v-1272z" />
<glyph unicode="&#xe0;" horiz-adv-x="1048" d="M84 395q0 -145 16 -211q33 -113 138 -164q51 -25 114 -24q131 0 271 117v-113h374v1442h-370v-88q-59 49 -146 82q-55 20 -114 20q-88 0 -152 -45q-131 -92 -131 -401v-615zM160 2019l381 -383h268l-193 383h-456zM463 451v561q0 190 53 219q23 10 51.5 -4.5t55.5 -44.5 v-942q-29 -23 -62 -37q-41 -6 -61 8q-37 25 -37 240z" />
<glyph unicode="&#xe1;" horiz-adv-x="1048" d="M84 395q0 -145 16 -211q33 -113 138 -164q51 -25 114 -24q131 0 271 117v-113h374v1442h-370v-88q-59 49 -146 82q-55 20 -114 20q-88 0 -152 -45q-131 -92 -131 -401v-615zM356 1681h258l379 377h-448zM463 451v561q0 190 53 219q23 10 51.5 -4.5t55.5 -44.5v-942 q-29 -23 -62 -37q-41 -6 -61 8q-37 25 -37 240z" />
<glyph unicode="&#xe2;" horiz-adv-x="1048" d="M84 395q0 -145 16 -211q33 -113 138 -164q51 -25 114 -24q131 0 271 117v-113h374v1442h-370v-88q-59 49 -146 82q-55 20 -114 20q-88 0 -152 -45q-131 -92 -131 -401v-615zM119 1667h266l160 160l160 -162h274l-246 391h-375zM463 451v561q0 190 53 219q23 10 51.5 -4.5 t55.5 -44.5v-942q-29 -23 -62 -37q-41 -6 -61 8q-37 25 -37 240z" />
<glyph unicode="&#xe3;" horiz-adv-x="1048" d="M49 1694h121q25 111 82 143q23 14 49 14q37 0 92 -36q61 -41 101.5 -66t56.5 -35q63 -33 111 -33q45 0 106 27q117 51 162 182q10 31 18 87.5t17 140.5h-131q-23 -113 -86 -140q-25 -10 -43 -10q-33 0 -79 30t-94 62q-84 55 -192 56q-61 0 -100 -21q-186 -94 -191 -401z M84 395q0 -145 16 -211q33 -113 138 -164q51 -25 114 -24q131 0 271 117v-113h374v1442h-370v-88q-59 49 -146 82q-55 20 -114 20q-88 0 -152 -45q-131 -92 -131 -401v-615zM463 451v561q0 190 53 219q23 10 51.5 -4.5t55.5 -44.5v-942q-29 -23 -62 -37q-41 -6 -61 8 q-37 25 -37 240z" />
<glyph unicode="&#xe4;" horiz-adv-x="1048" d="M84 395q0 -145 16 -211q33 -113 138 -164q51 -25 114 -24q131 0 271 117v-113h374v1442h-370v-88q-59 49 -146 82q-55 20 -114 20q-88 0 -152 -45q-131 -92 -131 -401v-615zM125 1827q6 -98 90 -148q33 -20 84 -20q41 0 78 16q86 41 102 140q12 88 -63 155 q-47 45 -115 45q-39 0 -72.5 -14t-57.5 -40t-36 -60.5t-10 -73.5zM463 451v561q0 190 53 219q23 10 51.5 -4.5t55.5 -44.5v-942q-29 -23 -62 -37q-41 -6 -61 8q-37 25 -37 240zM643 1817q12 -102 98 -142q37 -16 74 -16q49 0 90 24q86 53 92 144q6 92 -73 153 q-48 37 -107 37q-41 0 -74.5 -16t-57 -44t-36 -65t-6.5 -75z" />
<glyph unicode="&#xe5;" horiz-adv-x="1048" d="M84 395q0 -145 16 -211q33 -113 138 -164q51 -25 114 -24q131 0 271 117v-113h374v1442h-370v-88q-59 49 -146 82q-55 20 -114 20q-88 0 -152 -45q-131 -92 -131 -401v-615zM330 1911q6 -133 129 -207q51 -33 123 -33q55 0 104 23q143 68 143 227q0 113 -81 186 q-76 66 -170 66q-78 0 -142 -45q-113 -82 -106 -217zM461 1905q-14 80 61 131q59 31 113 2q70 -37 74 -109q4 -70 -58 -114q-31 -25 -67 -25q-45 0 -80 35t-43 80zM463 451v561q0 190 53 219q23 10 51.5 -4.5t55.5 -44.5v-942q-29 -23 -62 -37q-41 -6 -61 8q-37 25 -37 240z " />
<glyph unicode="&#xe6;" horiz-adv-x="1542" d="M80 401q0 -154 16 -219q33 -119 152 -166q51 -18 110 -18q172 0 336 178q90 -119 185 -158q61 -23 145 -22q190 0 309 78q176 121 164 420h-375q0 -184 -45 -215q-35 -23 -61 -3q-41 29 -41 263v106h518v291q0 190 -18 264q-33 145 -154 211q-82 45 -152 45 q-86 0 -200 -84v70h-346v-78q-35 27 -71 46.5t-71 29.5q-55 16 -106 16q-88 0 -152 -45q-143 -100 -143 -401v-609zM461 451v550q0 201 57 228q14 6 31 6q27 0 50.5 -15.5t23.5 -27.5v-922q-66 -43 -80 -43q-10 0 -35 11q-47 25 -47 213zM975 911q0 244 53 275q35 18 55 -2 q35 -35 35 -273h-143z" />
<glyph unicode="&#xe7;" horiz-adv-x="972" d="M90 481q0 -176 21 -239q37 -119 161 -193q94 -55 230 -55q135 0 237 55q127 72 170 207q25 74 31 244h-342v-160q0 -68 -41 -78q-39 -8 -65 23q-20 20 -21 209v436q0 217 31 241q23 16 55 3q41 -16 41 -254h338q0 188 -16 260q-35 143 -166 221q-96 55 -252 55 q-137 0 -215 -45q-135 -78 -174 -229q-23 -86 -23 -250v-451zM184 -213h391l48 199h-283z" />
<glyph unicode="&#xe8;" horiz-adv-x="1032" d="M35 1993l381 -381h268l-192 381h-457zM90 510q0 -160 25 -242q39 -143 170 -221q90 -51 250 -51q168 0 270 55q125 72 158 207q18 70 18 240h-379q0 -197 -35 -225.5t-65 -4.5q-33 27 -33 262v111h506v264q0 223 -14 279q-33 137 -166 217q-92 55 -246 55 q-156 0 -250 -55q-135 -78 -180 -236q-29 -102 -29 -270v-385zM465 911q0 233 35 263q29 23 59 12q25 -7 33 -21q4 -4 16.5 -36.5t9.5 -217.5h-153z" />
<glyph unicode="&#xe9;" horiz-adv-x="1032" d="M90 510q0 -160 25 -242q39 -143 170 -221q90 -51 250 -51q168 0 270 55q125 72 158 207q18 70 18 240h-379q0 -197 -35 -225.5t-65 -4.5q-33 27 -33 262v111h506v264q0 223 -14 279q-33 137 -166 217q-92 55 -246 55q-156 0 -250 -55q-135 -78 -180 -236 q-29 -102 -29 -270v-385zM330 1681h258l381 377h-451zM465 911q0 233 35 263q29 23 59 12q25 -7 33 -21q4 -4 16.5 -36.5t9.5 -217.5h-153z" />
<glyph unicode="&#xea;" horiz-adv-x="1032" d="M90 510q0 -160 25 -242q39 -143 170 -221q90 -51 250 -51q168 0 270 55q125 72 158 207q18 70 18 240h-379q0 -197 -35 -225.5t-65 -4.5q-33 27 -33 262v111h506v264q0 223 -14 279q-33 137 -166 217q-92 55 -246 55q-156 0 -250 -55q-135 -78 -180 -236 q-29 -102 -29 -270v-385zM119 1667h266l160 160l160 -162h274l-246 391h-375zM465 911q0 233 35 263q29 23 59 12q25 -7 33 -21q4 -4 16.5 -36.5t9.5 -217.5h-153z" />
<glyph unicode="&#xeb;" horiz-adv-x="1032" d="M90 510q0 -160 25 -242q39 -143 170 -221q90 -51 250 -51q168 0 270 55q125 72 158 207q18 70 18 240h-379q0 -197 -35 -225.5t-65 -4.5q-33 25 -33 262v111h506v264q0 223 -14 279q-33 137 -166 217q-92 55 -246 55q-156 0 -250 -55q-135 -78 -180 -236 q-29 -102 -29 -270v-385zM104 1827q6 -98 91 -148q33 -20 84 -20q41 0 77 16q86 41 103 140q12 88 -64 155q-46 45 -114 45q-39 0 -73 -14t-57.5 -40t-36 -60.5t-10.5 -73.5zM465 911q0 233 35 263q29 23 59 12q25 -7 33 -21q4 -4 16.5 -36.5t9.5 -217.5h-153zM623 1817 q12 -102 98 -142q37 -16 74 -16q49 0 90 24q86 53 92 144q6 92 -74 153q-47 37 -106 37q-41 0 -75 -16t-57.5 -44t-36 -65t-5.5 -75z" />
<glyph unicode="&#xec;" horiz-adv-x="538" d="M-121 2040l381 -383h268l-192 383h-457zM104 0h375v1442h-375v-1442z" />
<glyph unicode="&#xed;" horiz-adv-x="538" d="M45 1681h256l381 377h-451zM104 0h375v1442h-375v-1442z" />
<glyph unicode="&#xee;" horiz-adv-x="538" d="M-143 1683h262l160 160l161 -162h273l-244 390h-375zM104 0h375v1442h-375v-1442z" />
<glyph unicode="&#xef;" horiz-adv-x="538" d="M-133 1829q6 -98 90 -148q33 -20 80 -20q43 0 80 18q88 43 102 138q12 88 -63 155q-47 45 -115 45q-37 0 -69.5 -14t-57.5 -40t-37 -60.5t-10 -73.5zM104 0h375v1442h-375v-1442zM383 1819q12 -100 98 -140q37 -16 76 -16q47 0 88 23q86 53 92 143q6 92 -73 153 q-48 37 -107 37q-41 0 -74.5 -16t-57.5 -44t-36 -64.5t-6 -75.5z" />
<glyph unicode="&#xf1;" horiz-adv-x="1067" d="M29 1710h118q29 109 84 143q20 14 48 15q37 0 94 -39q61 -41 101 -65.5t56 -34.5q63 -33 111 -33q45 0 107 26q117 53 159 183q20 63 37 229h-133q-18 -111 -84 -141q-25 -10 -41 -11q-33 0 -80 31t-94 64q-84 55 -188 55q-59 0 -105 -23q-188 -96 -190 -399zM106 0h381 v1153q4 2 13.5 13.5t25.5 31.5q20 25 37 25q14 0 33 -13q39 -27 33 -213v-997h375v1020q0 166 -19 231q-33 125 -156 181q-55 25 -106 24q-106 0 -240 -121v107h-377v-1442z" />
<glyph unicode="&#xf2;" horiz-adv-x="1050" d="M57 2032l383 -381h269l-193 381h-459zM88 528q0 -174 21 -241q37 -143 172 -219q127 -72 274 -72q141 0 254 63q141 78 180 226q20 74 21 256v346q0 150 -17 237q-31 150 -125 230q-123 104 -325 104q-45 0 -94 -6q-92 -12 -173 -59q-129 -82 -170 -236q-18 -78 -18 -250 v-379zM461 539v372q0 207 31 242q37 45 83 23q66 -29 66 -261v-376q0 -223 -53 -258q-29 -23 -72 4q-55 31 -55 254z" />
<glyph unicode="&#xf3;" horiz-adv-x="1060" d="M88 528q0 -174 21 -241q37 -143 172 -219q127 -72 274 -72q141 0 254 63q141 78 180 226q20 74 21 256v346q0 150 -17 237q-31 150 -125 230q-123 104 -325 104q-45 0 -94 -6q-92 -12 -173 -59q-129 -82 -170 -236q-18 -78 -18 -250v-379zM330 1681h258l381 377h-451z M461 539v372q0 207 31 242q37 45 83 23q66 -29 66 -261v-376q0 -223 -53 -258q-29 -23 -72 4q-55 31 -55 254z" />
<glyph unicode="&#xf4;" horiz-adv-x="1050" d="M88 528q0 -174 21 -241q37 -143 172 -219q127 -72 274 -72q141 0 254 63q141 78 180 226q20 74 21 256v346q0 150 -17 237q-31 150 -125 230q-123 104 -325 104q-45 0 -94 -6q-92 -12 -173 -59q-129 -82 -170 -236q-18 -78 -18 -250v-379zM127 1683h266l158 160l162 -162 h274l-246 390h-374zM461 539v372q0 207 31 242q37 45 83 23q66 -29 66 -261v-376q0 -223 -53 -258q-29 -23 -72 4q-55 31 -55 254z" />
<glyph unicode="&#xf5;" horiz-adv-x="1050" d="M35 1710h119q27 109 84 143q20 14 47 15q35 0 92 -39q61 -41 101 -65.5t57 -34.5q63 -33 110 -33q45 0 107 26q115 51 161 185q18 57 37 227h-133q-18 -111 -86 -141q-18 -8 -41 -8q-33 0 -79 29.5t-93 62.5q-84 55 -190 55q-59 0 -105 -23q-186 -96 -188 -399zM88 528 q0 -174 21 -241q37 -143 172 -219q127 -72 274 -72q141 0 254 63q141 78 180 226q20 74 21 256v346q0 150 -17 237q-31 150 -125 230q-123 104 -325 104q-45 0 -94 -6q-92 -12 -173 -59q-129 -82 -170 -236q-18 -78 -18 -250v-379zM461 539v372q0 207 31 242q37 45 83 23 q66 -29 66 -261v-376q0 -223 -53 -258q-29 -23 -72 4q-55 31 -55 254z" />
<glyph unicode="&#xf6;" horiz-adv-x="1050" d="M88 528q0 -174 21 -241q37 -143 172 -219q127 -72 274 -72q141 0 254 63q141 78 180 226q20 74 21 256v346q0 150 -17 237q-31 150 -125 230q-123 104 -325 104q-49 0 -94 -6q-92 -12 -173 -59q-129 -82 -170 -236q-18 -78 -18 -250v-379zM125 1827q6 -98 90 -148 q33 -20 84 -20q41 0 78 16q86 41 102 140q12 88 -63 155q-47 45 -115 45q-39 0 -72.5 -14t-57.5 -40t-36 -60.5t-10 -73.5zM461 539v372q0 207 31 242q37 45 83 23q66 -29 66 -261v-376q0 -223 -53 -258q-29 -23 -72 4q-55 31 -55 254zM643 1817q12 -102 98 -142 q37 -16 74 -16q49 0 90 24q86 53 92 144q6 92 -73 153q-48 37 -107 37q-41 0 -74.5 -16t-57 -44t-36 -65t-6.5 -75z" />
<glyph unicode="&#xf8;" horiz-adv-x="1050" d="M88 528q0 -72 3 -121t7 -77q18 -115 92 -191l-59 -139h223l13 27q92 -31 188 -31q141 0 254 63q141 78 180 226q20 74 21 256v346q0 301 -99 424l62 145h-225l-13 -29q-125 45 -286 25q-92 -12 -173 -59q-129 -82 -170 -236q-18 -78 -18 -250v-379zM461 778v133 q0 207 31 242q37 45 83 23q20 -8 37 -41zM489 315l152 359v-135q0 -223 -53 -258q-23 -18 -56 -5q-31 12 -43 39z" />
<glyph unicode="&#xf9;" horiz-adv-x="1083" d="M86 2058l383 -383h268l-192 383h-459zM109 557q0 -100 4 -166.5t12 -101.5q41 -160 176 -238q98 -55 264 -55q176 0 273 53q131 76 172 264q18 88 18 265v864h-371v-903q0 -231 -43 -258q-39 -27 -73 -9q-53 31 -54 269v901h-378v-885z" />
<glyph unicode="&#xfa;" horiz-adv-x="1083" d="M109 557q0 -100 4 -166.5t12 -101.5q41 -160 176 -238q98 -55 264 -55q176 0 273 53q131 76 172 264q18 88 18 265v864h-371v-903q0 -231 -43 -258q-39 -27 -73 -9q-53 31 -54 269v901h-378v-885zM330 1681h258l381 377h-451z" />
<glyph unicode="&#xfb;" horiz-adv-x="1083" d="M109 557q0 -100 4 -166.5t12 -101.5q41 -160 176 -238q98 -55 264 -55q176 0 273 53q131 76 172 264q18 88 18 265v864h-371v-903q0 -231 -43 -258q-39 -27 -73 -9q-53 31 -54 269v901h-378v-885zM127 1683h266l158 160l162 -162h274l-246 390h-374z" />
<glyph unicode="&#xfc;" horiz-adv-x="1083" d="M109 557q0 -100 4 -166.5t12 -101.5q41 -160 176 -238q98 -55 264 -55q176 0 273 53q131 76 172 264q18 88 18 265v864h-371v-903q0 -231 -43 -258q-39 -27 -73 -9q-53 31 -54 269v901h-378v-885zM125 1827q6 -98 90 -148q33 -20 84 -20q41 0 78 16q86 41 102 140 q12 88 -63 155q-47 45 -115 45q-39 0 -72.5 -14t-57.5 -40t-36 -60.5t-10 -73.5zM643 1817q12 -102 98 -142q37 -16 74 -16q49 0 90 24q86 53 92 144q6 92 -73 153q-48 37 -107 37q-41 0 -74.5 -16t-57 -44t-36 -65t-6.5 -75z" />
<glyph unicode="&#xfd;" horiz-adv-x="935" d="M10 1442l281 -1059q35 -133 35 -170q0 -70 -39 -100q-29 -23 -64 -23q-57 0 -153 72v-332q106 -43 206 -43q66 0 121 23q96 41 156 161q29 59 63 185l338 1286h-389l-84 -854l-75 854h-396zM330 1655h258l381 377h-451z" />
<glyph unicode="&#xff;" horiz-adv-x="935" d="M10 1442l281 -1059q35 -133 35 -170q0 -70 -39 -100q-29 -23 -64 -23q-57 0 -153 72v-332q106 -43 206 -43q66 0 121 23q96 41 156 161q29 59 63 185l338 1286h-389l-84 -854l-75 854h-396zM63 1827q6 -98 91 -148q33 -20 84 -20q41 0 77 16q86 41 103 140q12 88 -64 155 q-46 45 -114 45q-39 0 -73 -14t-57.5 -40t-36 -60.5t-10.5 -73.5zM582 1817q12 -102 98 -142q37 -16 74 -16q49 0 90 24q86 53 92 144q6 92 -74 153q-47 37 -106 37q-41 0 -75 -16t-57.5 -44t-36 -65t-5.5 -75z" />
<glyph unicode="&#x152;" horiz-adv-x="1574" d="M102 539q0 -170 23 -250q39 -145 172 -221q127 -72 336 -72q27 0 52.5 1t51.5 3h781v281h-396v495h379v297h-371v459h398v301h-803q-72 10 -135.5 11t-120.5 -7q-106 -16 -174 -59q-129 -82 -168 -246q-25 -96 -25 -262v-731zM510 551v729q0 223 65 260q41 23 80 -4 q53 -35 54 -266v-719q0 -227 -62 -264q-41 -23 -82 4q-55 33 -55 260z" />
<glyph unicode="&#x153;" horiz-adv-x="1576" d="M88 528q0 -174 21 -241q37 -143 172 -219q127 -72 274 -72q141 0 254 63l2 2q102 -66 272 -65q168 0 271 55q125 72 157 207q18 70 19 240h-379q0 -197 -35 -225.5t-65 -4.5q-33 25 -33 262v111h506v264q0 223 -15 279q-33 137 -166 217q-92 55 -245 55q-172 0 -275 -70 q-115 72 -280 72q-49 0 -94 -6q-92 -12 -173 -59q-129 -82 -170 -236q-18 -78 -18 -250v-379zM461 539v372q0 207 31 242q37 45 83 23q55 -25 66 -191q-2 -18 -2 -41v-49v-385v-82q-6 -121 -51 -147q-29 -23 -72 4q-55 31 -55 254zM1014 911q0 233 35 263q29 23 59 12 q25 -7 33 -21q4 -4 16 -36.5t10 -217.5h-153z" />
<glyph unicode="&#x178;" horiz-adv-x="1019" d="M23 1833l266 -993v-840h409v834l318 999h-402l-106 -498l-92 498h-393zM94 2204q6 -96 92 -148q33 -20 80 -20q43 0 80 18q88 43 103 137q12 88 -62 156q-52 45 -115 45q-39 0 -72.5 -14.5t-58 -40t-37 -60t-10.5 -73.5zM612 2193q8 -68 57.5 -111.5t116.5 -43.5 q47 0 88 22q88 51 93 144q2 94 -74 153q-50 37 -107 37q-80 0 -131 -61q-53 -59 -43 -140z" />
<glyph unicode="&#x2c6;" horiz-adv-x="1015" d="M80 1559h268l160 159l162 -162h270l-246 390h-375z" />
<glyph unicode="&#x2dc;" horiz-adv-x="1067" d="M80 1554h121q27 106 84 142q20 14 47 14q37 0 92 -37q121 -80 158 -100q59 -33 108 -33q47 0 109 27q117 51 162 182q18 57 36 229h-133q-18 -111 -86 -141q-18 -8 -41 -8q-33 0 -79 29.5t-93 62.5q-84 55 -190 55q-59 0 -105 -22q-182 -96 -190 -400z" />
<glyph unicode="&#x2000;" horiz-adv-x="1283" />
<glyph unicode="&#x2001;" horiz-adv-x="2566" />
<glyph unicode="&#x2002;" horiz-adv-x="1283" />
<glyph unicode="&#x2003;" horiz-adv-x="2566" />
<glyph unicode="&#x2004;" horiz-adv-x="855" />
<glyph unicode="&#x2005;" horiz-adv-x="641" />
<glyph unicode="&#x2006;" horiz-adv-x="427" />
<glyph unicode="&#x2007;" horiz-adv-x="427" />
<glyph unicode="&#x2008;" horiz-adv-x="320" />
<glyph unicode="&#x2009;" horiz-adv-x="513" />
<glyph unicode="&#x200a;" horiz-adv-x="142" />
<glyph unicode="&#x2010;" horiz-adv-x="890" d="M96 684h733v354h-733v-354z" />
<glyph unicode="&#x2011;" horiz-adv-x="890" d="M96 684h733v354h-733v-354z" />
<glyph unicode="&#x2012;" horiz-adv-x="890" d="M96 684h733v354h-733v-354z" />
<glyph unicode="&#x2013;" horiz-adv-x="1239" d="M84 694h1079v334h-1079v-334z" />
<glyph unicode="&#x2014;" horiz-adv-x="2060" d="M162 686h1898v346h-1898v-346z" />
<glyph unicode="&#x2018;" horiz-adv-x="569" d="M74 1489q0 -100 57 -160q57 -68 158 -67q80 0 131 45q80 68 67 168q-8 63 -51 100q-10 10 -35.5 25.5t-64.5 35.5q-8 31 55 76q23 16 41.5 26.5t32.5 18.5l-49 76q-195 -51 -279 -147q-63 -72 -63 -197z" />
<glyph unicode="&#x2019;" horiz-adv-x="569" d="M90 1618q10 -61 51 -98q10 -10 36 -25.5t65 -36.5q8 -31 -56 -76q-23 -16 -41 -26t-32 -19l49 -75q195 47 278 145q63 72 64 197q0 100 -58.5 163.5t-162.5 63.5q-78 0 -123 -43q-37 -29 -56.5 -79t-13.5 -91z" />
<glyph unicode="&#x201a;" horiz-adv-x="569" d="M90 168q10 -61 51 -98q10 -10 36 -25.5t65 -36.5q8 -29 -56 -74q-23 -16 -41 -26t-32 -19l49 -75q195 47 278 145q63 70 64 195q0 100 -58.5 163.5t-162.5 63.5q-78 0 -123 -43q-37 -29 -56.5 -79t-13.5 -91z" />
<glyph unicode="&#x201c;" horiz-adv-x="1060" d="M74 1489q0 -100 57 -160q57 -68 158 -67q80 0 131 45q80 68 67 168q-8 63 -51 100q-10 10 -35.5 25.5t-64.5 35.5q-8 31 55 76q23 16 41.5 26.5t32.5 18.5l-49 76q-195 -51 -279 -147q-63 -72 -63 -197zM543 1485q0 -98 59.5 -160.5t157.5 -62.5q80 0 127 45 q82 61 67 168q-8 63 -49 100q-27 23 -100 61q-8 29 53 76q23 16 76 45l-49 76q-195 -51 -279 -147q-63 -76 -63 -201z" />
<glyph unicode="&#x201d;" horiz-adv-x="1060" d="M90 1618q10 -61 51 -98q10 -10 36 -25.5t65 -36.5q8 -31 -56 -76q-23 -16 -41 -26t-32 -19l49 -75q195 47 278 145q63 72 64 197q0 100 -58.5 163.5t-162.5 63.5q-78 0 -123 -43q-37 -29 -56.5 -79t-13.5 -91zM559 1618q10 -61 51 -98q10 -10 36 -25.5t65 -36.5 q8 -31 -56 -76q-8 -8 -27.5 -18t-47.5 -27l49 -75q195 47 278 145q63 76 64 201q0 98 -58.5 160.5t-158.5 62.5q-76 0 -127 -43q-35 -31 -54.5 -81t-13.5 -89z" />
<glyph unicode="&#x201e;" horiz-adv-x="1060" d="M90 168q10 -61 51 -98q10 -10 36 -25.5t65 -36.5q8 -29 -56 -74q-23 -16 -41 -26t-32 -19l49 -75q195 47 278 145q63 70 64 195q0 100 -58.5 163.5t-162.5 63.5q-78 0 -123 -43q-37 -29 -56.5 -79t-13.5 -91zM559 168q10 -61 51 -98q10 -10 36 -25.5t65 -36.5 q8 -29 -56 -74q-8 -8 -27.5 -18t-47.5 -27l49 -75q195 47 278 145q63 72 64 199q0 98 -58.5 160.5t-158.5 62.5q-76 0 -127 -43q-35 -31 -53.5 -81t-14.5 -89z" />
<glyph unicode="&#x2022;" horiz-adv-x="557" d="M86 743q10 -109 107 -163q41 -23 92 -23q53 0 92 21q100 51 112 155q12 106 -73 182q-51 46 -127 46q-88 0 -150 -64q-61 -66 -53 -154z" />
<glyph unicode="&#x2026;" horiz-adv-x="1671" d="M113 193q2 -111 98 -170q45 -25 102 -25q45 0 82 14q123 55 123 189q0 86 -74 151q-53 47 -133 47q-43 0 -79.5 -16t-64.5 -44t-42 -65.5t-12 -80.5zM670 193q2 -111 98 -170q45 -25 102 -25q45 0 82 14q123 55 123 189q0 86 -74 151q-53 47 -133 47q-43 0 -79.5 -16 t-64.5 -44t-42 -65.5t-12 -80.5zM1227 193q2 -111 98 -170q45 -25 102 -25q45 0 82 14q123 55 123 189q0 86 -73 151q-54 47 -134 47q-43 0 -79.5 -16t-64.5 -44t-42 -65.5t-12 -80.5z" />
<glyph unicode="&#x202f;" horiz-adv-x="513" />
<glyph unicode="&#x2039;" horiz-adv-x="647" d="M80 721l164 -721h303l-152 702l180 723h-309z" />
<glyph unicode="&#x203a;" horiz-adv-x="647" d="M80 1425h309l186 -704l-163 -721h-303l151 702z" />
<glyph unicode="&#x205f;" horiz-adv-x="641" />
<glyph unicode="&#x2122;" horiz-adv-x="1349" d="M74 1679h127v-796h207v794h127v158h-461v-156zM541 883h200l17 477l86 -477h110l97 477v-477h206l-16 952h-207l-129 -465l-110 465h-201z" />
<glyph unicode="&#xe000;" horiz-adv-x="1443" d="M0 0v1444h1444v-1444h-1444z" />
</font>
</defs>
</svg>
